<?xml version="1.0"?>
<svg xmlns="http://www.w3.org/2000/svg" viewBox="0 0 512 512" width="512" height="512"><line x1="438.98" y1="206.97" x2="147.34" y2="411.18" stroke="#2F7BF0" stroke-width="6.66" opacity="0.5" stroke-linecap="round"></line><line x1="364.66" y1="411.18" x2="73.02" y2="206.97" stroke="#2F7BF0" stroke-width="6.66" opacity="0.5" stroke-linecap="round"></line><path d="M383.98,116.33 A189.44,189.44,0,0,1,436.67,199.03" fill="none" stroke="rgb(47,123,240)" stroke-width="30.72" stroke-linecap="round"></path><path d="M440.95,215.00 A189.44,189.44,0,0,1,436.67,312.97" fill="none" stroke="rgb(53,138,240)" stroke-width="30.72" stroke-linecap="round"></path><path d="M431.02,328.50 A189.44,189.44,0,0,1,371.32,406.29" fill="none" stroke="rgb(60,152,240)" stroke-width="30.72" stroke-linecap="round"></path><path d="M357.79,415.77 A189.44,189.44,0,0,1,264.26,445.26" fill="none" stroke="rgb(66,167,240)" stroke-width="30.72" stroke-linecap="round"></path><path d="M247.74,445.26 A189.44,189.44,0,0,1,154.21,415.77" fill="none" stroke="rgb(72,181,240)" stroke-width="30.72" stroke-linecap="round"></path><path d="M140.68,406.29 A189.44,189.44,0,0,1,80.98,328.50" fill="none" stroke="rgb(78,196,240)" stroke-width="30.72" stroke-linecap="round"></path><path d="M75.33,312.97 A189.44,189.44,0,0,1,71.05,215.00" fill="none" stroke="rgb(85,210,240)" stroke-width="30.72" stroke-linecap="round"></path><path d="M75.33,199.03 A189.44,189.44,0,0,1,128.02,116.33" fill="none" stroke="rgb(91,225,240)" stroke-width="30.72" stroke-linecap="round"></path><circle cx="434.02" cy="320.79" r="11.98" fill="#101820" stroke="#2F7BF0" stroke-width="8.19"></circle><circle cx="256.00" cy="445.44" r="11.98" fill="#101820" stroke="#2F7BF0" stroke-width="8.19"></circle><circle cx="77.98" cy="320.79" r="13.82" fill="#5BE1F0"></circle><circle cx="377.77" cy="110.88" r="14.59" fill="#101820" stroke="#2F7BF0" stroke-width="9.01"></circle><path d="M177.77,74.35 L152.98,146.48 L102.42,86.24 Z" fill="#5BE1F0"></path></svg>